<?xml version="1.0" standalone="no"?>
<!DOCTYPE svg PUBLIC "-//W3C//DTD SVG 20010904//EN"
 "http://www.w3.org/TR/2001/REC-SVG-20010904/DTD/svg10.dtd">
<svg version="1.0" xmlns="http://www.w3.org/2000/svg"
 width="180.000000pt" height="172.000000pt" viewBox="0 0 180.000000 172.000000"
 preserveAspectRatio="xMidYMid meet">
<metadata>
Created by potrace 1.16, written by Peter Selinger 2001-2019
</metadata>
<g transform="translate(0.000000,172.000000) scale(0.100000,-0.100000)"
fill="#000000" stroke="none">
<path d="M870 1708 c-14 -5 -215 -199 -447 -431 -303 -302 -423 -428 -423
-444 0 -12 9 -27 21 -34 20 -10 55 23 443 410 232 232 426 421 431 421 6 0 82
-72 169 -159 142 -142 191 -179 183 -138 -1 7 3 11 8 10 6 0 15 5 22 12 9 9
-26 49 -156 179 -170 170 -202 192 -251 174z"/>
<path d="M236 834 c-13 -12 -16 -38 -16 -119 0 -114 1 -115 58 -74 19 14 22
26 23 97 1 82 -8 112 -37 112 -7 0 -20 -7 -28 -16z"/>
</g>
</svg>
