<svg id="svg" version="1.1" xmlns="http://www.w3.org/2000/svg" xmlns:xlink="http://www.w3.org/1999/xlink" width="400" height="382.2222222222222" viewBox="0, 0, 400,382.2222222222222"><g id="svgg"><path id="path0" d="M343.308 135.021 C 342.940 135.235,342.639 135.746,342.639 136.157 C 342.639 136.648,342.377 136.902,341.874 136.902 C 341.449 136.902,341.109 137.157,341.109 137.476 C 341.109 138.237,340.383 138.203,339.498 137.402 C 338.820 136.789,338.731 136.809,337.827 137.784 C 337.282 138.372,336.462 138.815,335.918 138.815 C 334.658 138.815,332.314 141.153,332.314 142.410 C 332.314 143.196,332.105 143.375,331.073 143.475 C 329.756 143.602,328.217 145.671,329.197 145.997 C 329.439 146.078,329.637 146.312,329.637 146.517 C 329.637 146.722,329.446 146.773,329.213 146.629 C 328.924 146.450,328.878 146.643,329.066 147.237 C 329.287 147.934,329.222 148.062,328.737 147.876 C 328.019 147.600,327.635 148.079,327.939 148.872 C 328.076 149.228,328.452 149.360,328.956 149.228 C 329.501 149.086,329.669 149.160,329.483 149.462 C 329.332 149.705,329.391 149.904,329.614 149.904 C 329.837 149.904,330.019 149.698,330.019 149.446 C 330.019 149.097,330.133 149.101,330.494 149.461 C 330.872 149.840,330.853 150.010,330.398 150.297 C 329.991 150.554,329.970 150.659,330.323 150.663 C 330.595 150.667,330.767 150.970,330.705 151.338 C 330.628 151.797,330.822 151.988,331.322 151.945 C 331.723 151.910,332.294 152.125,332.592 152.423 C 332.895 152.726,332.953 152.964,332.723 152.964 C 331.878 152.964,332.356 153.783,333.417 154.153 C 334.211 154.430,334.587 154.866,334.755 155.704 C 334.920 156.531,335.154 156.807,335.557 156.652 C 335.892 156.524,336.291 156.742,336.528 157.184 C 336.749 157.597,336.794 157.942,336.629 157.950 C 336.464 157.958,336.888 158.208,337.572 158.505 C 338.255 158.802,338.836 159.312,338.862 159.637 C 338.889 159.963,338.932 160.445,338.958 160.707 C 338.984 160.970,339.434 161.185,339.957 161.185 C 340.617 161.185,341.062 161.507,341.412 162.237 C 341.706 162.851,342.225 163.289,342.659 163.289 C 343.069 163.289,343.425 163.547,343.451 163.862 C 343.478 164.178,343.521 164.651,343.547 164.914 C 343.573 165.177,344.048 165.445,344.603 165.509 C 345.373 165.598,345.664 165.891,345.836 166.752 C 346.016 167.649,346.261 167.878,347.049 167.878 C 347.597 167.878,347.934 168.045,347.806 168.252 C 347.521 168.714,348.304 170.261,348.699 170.017 C 349.239 169.683,350.076 170.515,350.086 171.395 C 350.093 172.078,350.283 172.249,350.932 172.160 C 351.711 172.052,352.976 173.488,352.550 173.996 C 352.462 174.101,352.863 174.242,353.442 174.308 C 354.020 174.375,354.515 174.676,354.541 174.978 C 354.567 175.279,354.610 175.741,354.637 176.004 C 354.663 176.267,355.147 176.535,355.713 176.601 C 356.508 176.692,356.768 176.953,356.860 177.748 C 356.953 178.549,357.211 178.803,358.031 178.897 C 358.860 178.993,359.082 179.217,359.082 179.958 C 359.082 180.701,359.328 180.948,360.250 181.132 C 361.237 181.330,361.400 181.520,361.302 182.363 C 361.223 183.034,361.373 183.373,361.759 183.400 C 363.077 183.491,363.241 183.596,363.358 184.417 C 363.444 185.027,363.779 185.312,364.508 185.396 C 365.303 185.488,365.564 185.748,365.656 186.543 C 365.747 187.338,366.008 187.599,366.803 187.690 C 367.598 187.782,367.858 188.043,367.950 188.838 C 368.042 189.633,368.302 189.893,369.097 189.985 C 369.892 190.077,370.153 190.337,370.245 191.130 C 370.331 191.875,370.628 192.210,371.324 192.350 C 371.946 192.475,372.283 192.798,372.280 193.266 C 372.275 193.976,372.761 194.387,374.092 194.798 C 374.517 194.929,374.763 195.393,374.767 196.068 C 374.771 196.896,374.855 197.004,375.143 196.558 C 375.391 196.176,375.516 196.144,375.520 196.463 C 375.523 196.726,375.756 196.941,376.038 196.941 C 376.320 196.941,376.746 197.371,376.986 197.897 C 377.270 198.521,377.733 198.853,378.319 198.853 C 379.100 198.853,379.195 199.003,379.049 200.000 C 378.893 201.065,378.966 201.147,380.071 201.147 C 381.056 201.147,381.262 201.298,381.262 202.019 C 381.262 202.637,381.596 203.018,382.410 203.325 C 383.170 203.612,383.486 203.946,383.344 204.314 C 383.112 204.920,383.993 205.320,386.233 205.623 C 387.822 205.838,387.787 205.812,387.866 206.854 C 387.934 207.764,389.714 208.486,389.973 207.709 C 390.156 207.162,394.646 207.100,394.646 207.644 C 394.646 208.430,396.407 207.890,396.444 207.093 C 396.464 206.662,396.398 206.525,396.296 206.788 C 396.050 207.428,395.336 207.391,394.433 206.690 C 393.732 206.147,393.746 206.134,394.683 206.467 C 395.606 206.795,395.666 206.748,395.541 205.800 C 395.468 205.239,395.509 204.995,395.632 205.258 C 395.910 205.849,398.329 205.892,398.687 205.313 C 398.863 205.028,398.683 204.974,398.136 205.147 C 397.654 205.300,397.323 205.239,397.323 204.997 C 397.323 204.773,397.452 204.609,397.610 204.634 C 398.390 204.757,398.872 204.546,398.646 204.181 C 398.507 203.956,398.754 203.678,399.197 203.563 C 400.258 203.285,400.483 190.440,399.426 190.440 C 399.073 190.440,398.853 190.081,398.853 189.506 C 398.853 188.462,398.232 187.918,397.228 188.083 C 396.733 188.165,396.558 187.933,396.558 187.193 C 396.558 186.431,396.292 186.100,395.434 185.801 C 394.731 185.556,394.265 185.098,394.191 184.579 C 394.126 184.122,393.858 183.726,393.595 183.700 C 393.332 183.674,392.855 183.630,392.536 183.604 C 392.136 183.571,392.007 183.265,392.123 182.624 C 392.264 181.848,392.106 181.651,391.175 181.447 C 390.560 181.312,390.036 180.957,390.010 180.658 C 389.983 180.359,389.938 179.900,389.909 179.637 C 389.880 179.374,389.385 179.165,388.809 179.174 C 387.922 179.187,387.763 179.031,387.763 178.148 C 387.763 177.296,387.571 177.084,386.711 176.985 C 385.922 176.894,385.626 176.625,385.526 175.908 C 385.370 174.799,384.863 174.392,383.876 174.582 C 383.323 174.688,383.174 174.478,383.174 173.592 C 383.174 172.646,383.021 172.467,382.218 172.467 C 381.692 172.467,381.240 172.294,381.214 172.084 C 381.188 171.874,381.123 171.530,381.071 171.319 C 381.018 171.109,380.954 170.765,380.927 170.554 C 380.901 170.344,380.449 170.172,379.924 170.172 C 379.258 170.172,378.967 169.963,378.967 169.484 C 378.967 168.620,378.247 167.878,377.409 167.878 C 377.003 167.878,376.685 167.457,376.539 166.730 C 376.357 165.819,376.111 165.583,375.344 165.583 C 374.762 165.583,374.360 165.355,374.331 165.010 C 374.304 164.694,374.258 164.221,374.227 163.958 C 374.194 163.678,373.749 163.524,373.154 163.586 C 372.295 163.675,372.118 163.527,372.015 162.630 C 371.927 161.866,371.651 161.534,371.033 161.446 C 370.503 161.370,370.172 161.058,370.172 160.632 C 370.172 159.847,369.538 159.228,368.527 159.028 C 368.147 158.953,367.829 158.719,367.820 158.509 C 367.780 157.646,367.039 156.788,366.335 156.788 C 365.846 156.788,365.583 156.528,365.583 156.046 C 365.583 155.247,364.976 154.711,364.054 154.695 C 363.738 154.689,363.422 154.277,363.352 153.779 C 363.269 153.192,362.831 152.725,362.109 152.452 C 361.496 152.221,360.994 151.823,360.994 151.569 C 360.994 150.862,359.812 149.836,359.247 150.053 C 358.925 150.176,358.704 149.878,358.628 149.214 C 358.543 148.482,358.259 148.148,357.648 148.061 C 357.175 147.994,356.766 147.779,356.740 147.583 C 356.639 146.835,356.576 146.640,356.281 146.176 C 356.114 145.913,355.644 145.698,355.236 145.698 C 354.827 145.698,354.472 145.526,354.446 145.315 C 354.350 144.551,354.285 144.351,353.971 143.855 C 353.795 143.578,353.431 143.436,353.163 143.539 C 352.481 143.800,351.816 143.035,351.816 141.989 C 351.816 141.305,351.603 141.109,350.860 141.109 C 350.266 141.109,349.904 140.892,349.904 140.535 C 349.904 140.220,349.738 139.962,349.534 139.962 C 349.330 139.962,349.254 139.725,349.365 139.436 C 349.491 139.109,349.306 138.912,348.875 138.915 C 347.094 138.926,346.645 138.808,347.181 138.469 C 347.848 138.047,347.340 137.160,346.595 137.446 C 346.286 137.565,346.144 137.492,346.274 137.281 C 346.403 137.073,346.351 136.902,346.159 136.902 C 345.627 136.902,343.801 135.103,344.064 134.839 C 344.407 134.497,344.068 134.579,343.308 135.021 M343.835 136.020 C 344.280 136.569,344.280 136.619,343.832 136.349 C 343.465 136.128,343.363 136.193,343.497 136.562 C 343.603 136.855,343.927 137.038,344.216 136.971 C 344.646 136.870,344.652 136.939,344.248 137.350 C 343.679 137.928,343.037 137.241,343.027 136.042 C 343.020 135.207,343.171 135.202,343.835 136.020 M336.998 192.830 C 336.789 193.093,336.664 193.591,336.721 193.937 C 336.790 194.363,336.464 194.638,335.716 194.788 C 334.845 194.962,334.608 195.216,334.608 195.975 C 334.608 196.650,334.401 196.941,333.920 196.941 C 332.283 196.941,332.312 196.310,332.358 231.912 C 332.382 250.641,332.540 265.277,332.708 264.436 C 332.877 263.595,333.031 259.043,333.051 254.322 C 333.071 249.601,333.231 245.643,333.408 245.527 C 333.584 245.410,333.817 245.057,333.925 244.742 C 334.033 244.426,334.251 245.502,334.410 247.132 C 334.691 250.024,334.723 250.096,335.729 250.096 C 338.279 250.096,339.993 246.084,337.572 245.783 C 336.886 245.698,337.399 245.602,338.719 245.568 C 340.997 245.510,341.109 245.462,341.109 244.551 C 341.109 243.757,341.292 243.595,342.185 243.595 C 342.881 243.595,343.648 243.190,344.359 242.447 C 345.101 241.673,345.839 241.296,346.630 241.287 C 347.274 241.279,348.231 241.027,348.757 240.727 C 350.068 239.977,350.286 240.018,350.293 241.013 C 350.297 241.701,350.371 241.760,350.659 241.303 C 350.857 240.990,350.876 240.589,350.700 240.413 C 350.524 240.238,350.528 239.462,350.707 238.689 C 350.887 237.917,351.065 236.597,351.103 235.755 C 351.170 234.255,351.176 234.263,351.412 236.138 C 351.926 240.217,352.242 230.808,352.125 214.914 L 352.008 199.044 351.052 199.044 C 350.171 199.044,350.081 198.878,349.904 196.941 C 349.727 194.986,349.639 194.829,348.662 194.716 C 347.850 194.623,347.610 194.392,347.610 193.706 C 347.610 193.216,347.338 192.712,347.005 192.584 C 345.801 192.122,337.397 192.328,336.998 192.830 M152.467 275.320 C 152.649 276.019,151.547 277.975,150.956 277.999 C 150.798 278.006,150.657 277.710,150.642 277.342 C 150.596 276.180,149.962 278.026,149.931 279.414 C 149.897 280.949,149.541 281.893,149.100 281.620 C 148.911 281.503,148.757 281.590,148.757 281.813 C 148.757 282.036,148.499 282.218,148.184 282.218 C 147.868 282.218,147.610 282.400,147.610 282.623 C 147.610 282.846,147.739 282.948,147.897 282.849 C 148.054 282.751,148.129 284.376,148.063 286.460 C 147.957 289.753,147.855 290.249,147.279 290.249 C 145.672 290.249,145.698 289.663,145.698 326.272 L 145.698 361.377 107.839 361.377 L 69.981 361.377 69.976 358.795 C 69.968 355.239,69.750 354.582,68.612 354.707 L 67.686 354.808 67.686 347.959 C 67.686 343.647,67.545 341.109,67.304 341.109 C 67.071 341.109,66.922 339.381,66.922 336.689 C 66.922 333.875,66.784 332.353,66.544 332.502 C 66.304 332.650,66.253 332.102,66.405 330.995 C 66.567 329.811,66.504 329.254,66.209 329.254 C 65.970 329.254,65.774 329.426,65.774 329.637 C 65.774 329.847,65.258 330.019,64.627 330.019 L 63.480 330.019 63.480 332.314 L 63.480 334.608 62.333 334.608 C 61.313 334.608,61.185 334.736,61.185 335.755 C 61.185 336.891,61.164 336.902,59.082 336.902 C 56.992 336.902,56.979 336.895,56.979 335.734 L 56.979 334.565 55.832 335.242 C 55.201 335.615,54.685 336.141,54.685 336.411 C 54.685 336.702,54.217 336.902,53.537 336.902 C 52.402 336.902,52.390 336.924,52.390 339.006 C 52.390 341.088,52.378 341.109,51.243 341.109 C 50.190 341.109,50.096 341.218,50.096 342.425 C 50.096 344.581,49.384 344.372,49.231 342.171 C 49.102 340.329,49.083 340.386,49.013 342.830 C 48.968 344.413,48.808 345.303,48.621 345.009 C 48.067 344.135,47.520 362.772,48.042 364.723 C 48.200 365.310,48.562 365.583,49.184 365.583 C 50.073 365.583,50.096 365.664,50.096 368.834 C 50.096 371.156,50.232 372.097,50.574 372.128 C 50.837 372.153,51.310 372.196,51.625 372.224 C 51.946 372.253,52.251 372.728,52.318 373.304 C 52.409 374.099,52.670 374.359,53.465 374.451 C 54.275 374.545,54.493 374.772,54.493 375.526 C 54.493 376.284,54.710 376.507,55.545 376.603 C 56.426 376.704,56.597 376.906,56.597 377.846 C 56.597 378.960,56.611 378.967,58.866 378.967 C 61.057 378.967,61.139 379.004,61.256 380.019 C 61.376 381.061,61.405 381.072,64.532 381.182 C 66.991 381.268,67.686 381.416,67.686 381.851 C 67.686 382.337,72.614 382.409,105.545 382.409 C 138.942 382.409,143.403 382.342,143.403 381.836 C 143.403 381.435,143.807 381.262,144.742 381.262 C 145.677 381.262,146.080 381.435,146.080 381.836 C 146.080 382.151,146.338 382.409,146.654 382.409 C 146.969 382.409,147.228 382.169,147.228 381.875 C 147.228 380.493,149.842 378.967,152.212 378.967 C 154.492 378.967,154.493 378.967,154.493 377.820 C 154.493 375.997,156.773 376.091,156.820 377.916 L 156.852 379.159 157.599 377.533 C 158.175 376.282,158.557 375.908,159.262 375.908 C 159.978 375.908,160.205 375.678,160.300 374.857 C 160.390 374.067,160.659 373.772,161.377 373.673 C 162.657 373.496,163.287 372.926,163.295 371.942 C 163.299 371.349,163.388 371.267,163.624 371.639 C 164.070 372.343,164.540 372.271,164.905 371.443 C 165.092 371.020,165.161 371.572,165.080 372.849 C 165.007 374.006,165.070 375.468,165.220 376.099 C 165.370 376.730,165.513 358.619,165.538 335.851 L 165.583 294.455 199.044 294.455 L 232.505 294.455 232.505 295.404 C 232.505 296.097,232.762 296.417,233.461 296.592 L 234.417 296.832 234.482 318.875 C 234.535 337.163,234.592 339.289,234.813 331.358 C 235.109 320.696,235.321 318.929,236.300 318.929 C 236.658 318.929,237.445 318.413,238.050 317.782 C 238.761 317.040,239.528 316.635,240.225 316.635 C 241.117 316.635,241.300 316.472,241.300 315.679 C 241.300 314.775,241.415 314.723,243.403 314.723 C 245.485 314.723,245.507 314.711,245.507 313.576 C 245.507 312.573,245.642 312.428,246.581 312.428 C 247.252 312.428,248.083 312.011,248.792 311.318 C 249.576 310.551,250.398 310.168,251.446 310.081 C 252.699 309.977,253.006 309.787,253.205 308.993 C 253.338 308.464,253.470 309.924,253.498 312.237 C 253.533 315.109,253.667 316.262,253.920 315.870 C 254.323 315.246,254.464 289.586,254.070 288.559 C 253.942 288.226,253.519 287.954,253.129 287.954 C 252.506 287.954,252.408 287.576,252.310 284.823 L 252.199 281.691 250.910 281.358 C 249.686 281.042,249.632 280.956,249.843 279.656 C 250.110 278.012,249.579 276.864,248.553 276.864 C 248.072 276.864,247.801 276.605,247.801 276.146 C 247.801 274.528,248.702 274.558,199.515 274.576 C 153.293 274.593,152.281 274.609,152.467 275.320 M164.818 365.010 C 164.818 365.535,164.670 365.966,164.489 365.966 C 164.308 365.966,164.242 365.535,164.342 365.010 C 164.443 364.484,164.591 364.054,164.672 364.054 C 164.752 364.054,164.818 364.484,164.818 365.010 M158.963 374.283 C 158.867 374.651,158.789 374.350,158.789 373.614 C 158.789 372.878,158.867 372.576,158.963 372.945 C 159.060 373.313,159.060 373.915,158.963 374.283 M148.470 381.134 C 147.903 381.361,147.824 382.409,148.375 382.409 C 148.585 382.409,148.757 382.151,148.757 381.836 C 148.757 381.088,149.414 381.093,149.646 381.843 C 149.783 382.285,149.813 382.269,149.770 381.779 C 149.708 381.077,149.220 380.835,148.470 381.134 M152.402 381.374 C 152.238 381.751,152.212 382.167,152.343 382.298 C 152.731 382.687,153.044 382.141,152.865 381.387 C 152.707 380.719,152.686 380.719,152.402 381.374 M159.178 381.143 C 159.546 381.239,160.148 381.239,160.516 381.143 C 160.884 381.047,160.583 380.968,159.847 380.968 C 159.111 380.968,158.810 381.047,159.178 381.143 M150.287 381.836 C 150.287 382.151,150.459 382.409,150.669 382.409 C 150.880 382.409,151.052 382.151,151.052 381.836 C 151.052 381.520,150.880 381.262,150.669 381.262 C 150.459 381.262,150.287 381.520,150.287 381.836 " stroke="none" fill="#f47dec" fill-rule="evenodd"></path><path id="path1" d="M196.558 0.574 C 196.558 1.039,195.942 1.147,193.308 1.147 L 190.057 1.147 190.057 2.294 L 190.057 3.442 187.763 3.442 L 185.468 3.442 185.468 4.589 C 185.468 5.618,185.346 5.736,184.280 5.736 C 183.203 5.736,183.114 5.826,183.331 6.692 C 183.570 7.643,183.208 7.867,181.740 7.677 C 181.449 7.639,181.262 8.069,181.262 8.779 C 181.262 9.817,181.138 9.943,180.115 9.943 C 179.095 9.943,178.967 10.070,178.967 11.090 C 178.967 12.110,178.840 12.237,177.820 12.237 C 176.801 12.237,176.673 12.365,176.673 13.384 C 176.673 14.404,176.546 14.532,175.526 14.532 C 174.506 14.532,174.379 14.659,174.379 15.679 C 174.379 16.702,174.253 16.826,173.215 16.826 C 172.505 16.826,172.075 17.013,172.113 17.304 C 172.303 18.772,172.079 19.134,171.128 18.895 C 170.262 18.678,170.172 18.767,170.172 19.844 C 170.172 20.910,170.054 21.033,169.025 21.033 C 168.005 21.033,167.878 21.160,167.878 22.180 C 167.878 23.199,167.750 23.327,166.730 23.327 C 165.711 23.327,165.583 23.454,165.583 24.474 C 165.583 25.494,165.456 25.621,164.436 25.621 C 163.416 25.621,163.289 25.749,163.289 26.769 C 163.289 27.788,163.161 27.916,162.141 27.916 C 161.511 27.916,161.015 28.045,161.040 28.203 C 161.197 29.200,160.873 29.775,160.038 29.985 C 159.340 30.160,159.082 30.481,159.082 31.174 C 159.082 32.057,158.427 32.381,157.075 32.168 C 156.917 32.143,156.788 32.639,156.788 33.270 C 156.788 34.289,156.660 34.417,155.641 34.417 C 154.621 34.417,154.493 34.544,154.493 35.564 C 154.493 36.584,154.366 36.711,153.346 36.711 C 152.326 36.711,152.199 36.839,152.199 37.859 C 152.199 38.878,152.071 39.006,151.052 39.006 C 150.421 39.006,149.925 39.135,149.950 39.293 C 150.161 40.629,149.828 41.258,148.853 41.370 C 148.042 41.464,147.808 41.688,147.832 42.352 C 147.860 43.166,147.421 43.402,146.176 43.241 C 145.885 43.203,145.698 43.633,145.698 44.343 C 145.698 45.381,145.574 45.507,144.551 45.507 C 143.531 45.507,143.403 45.634,143.403 46.654 C 143.403 47.674,143.276 47.801,142.256 47.801 C 141.236 47.801,141.109 47.929,141.109 48.948 C 141.109 49.968,140.982 50.096,139.962 50.096 C 138.942 50.096,138.815 50.223,138.815 51.243 C 138.815 52.268,138.690 52.390,137.643 52.390 C 136.757 52.390,136.489 52.553,136.540 53.059 C 136.667 54.311,136.521 54.554,135.660 54.524 C 134.996 54.500,134.772 54.734,134.678 55.545 C 134.566 56.521,133.937 56.853,132.600 56.642 C 132.443 56.617,132.314 57.113,132.314 57.744 C 132.314 58.764,132.186 58.891,131.166 58.891 C 130.147 58.891,130.019 59.018,130.019 60.038 C 130.019 61.058,129.892 61.185,128.872 61.185 C 127.852 61.185,127.725 61.313,127.725 62.333 C 127.725 63.352,127.597 63.480,126.577 63.480 C 125.558 63.480,125.430 63.607,125.430 64.627 C 125.430 65.596,125.281 65.774,124.474 65.774 C 123.709 65.774,123.518 65.966,123.518 66.730 C 123.518 67.538,123.340 67.686,122.371 67.686 C 121.351 67.686,121.224 67.814,121.224 68.834 C 121.224 69.853,121.096 69.981,120.076 69.981 C 119.057 69.981,118.929 70.108,118.929 71.128 C 118.929 72.148,118.802 72.275,117.782 72.275 C 116.762 72.275,116.635 72.403,116.635 73.423 C 116.635 74.442,116.507 74.570,115.488 74.570 C 114.857 74.570,114.361 74.699,114.386 74.857 C 114.595 76.185,114.263 76.822,113.304 76.934 C 112.564 77.021,112.202 77.329,112.040 78.011 C 111.870 78.727,111.601 78.937,110.973 78.848 C 110.266 78.747,110.134 78.912,110.134 79.899 C 110.134 80.946,110.012 81.071,108.987 81.071 C 107.967 81.071,107.839 81.198,107.839 82.218 C 107.839 83.238,107.712 83.365,106.692 83.365 C 105.672 83.365,105.545 83.493,105.545 84.512 C 105.545 85.532,105.417 85.660,104.398 85.660 C 103.767 85.660,103.271 85.789,103.296 85.946 C 103.528 87.420,103.200 87.954,102.062 87.954 C 100.994 87.954,100.897 88.048,101.107 88.885 C 101.308 89.685,101.193 89.832,100.288 89.936 C 99.461 90.031,99.209 90.283,99.114 91.109 C 99.002 92.085,98.373 92.417,97.036 92.206 C 96.879 92.181,96.750 92.677,96.750 93.308 C 96.750 94.328,96.622 94.455,95.602 94.455 C 94.583 94.455,94.455 94.583,94.455 95.602 C 94.455 96.622,94.328 96.750,93.308 96.750 C 92.288 96.750,92.161 96.877,92.161 97.897 C 92.161 98.920,92.035 99.044,90.997 99.044 C 90.287 99.044,89.857 99.231,89.895 99.522 C 90.072 100.886,89.827 101.338,88.910 101.338 C 88.145 101.338,87.954 101.530,87.954 102.294 C 87.954 103.211,87.502 103.456,86.138 103.279 C 85.846 103.241,85.660 103.672,85.660 104.381 C 85.660 105.419,85.536 105.545,84.512 105.545 C 83.493 105.545,83.365 105.672,83.365 106.692 C 83.365 107.712,83.238 107.839,82.218 107.839 C 81.198 107.839,81.071 107.967,81.071 108.987 C 81.071 110.006,80.943 110.134,79.924 110.134 C 79.293 110.134,78.797 110.263,78.822 110.421 C 79.033 111.759,78.709 112.428,77.851 112.428 C 77.133 112.428,76.868 112.686,76.673 113.575 C 76.457 114.558,76.289 114.689,75.495 114.490 C 74.665 114.281,74.570 114.380,74.570 115.446 C 74.570 116.584,74.035 116.913,72.562 116.680 C 72.404 116.655,72.275 117.151,72.275 117.782 C 72.275 118.802,72.148 118.929,71.128 118.929 C 70.108 118.929,69.981 119.057,69.981 120.076 C 69.981 121.096,69.853 121.224,68.834 121.224 C 68.203 121.224,67.707 121.353,67.732 121.511 C 67.943 122.847,67.610 123.476,66.635 123.588 C 65.882 123.675,65.548 123.954,65.461 124.569 C 65.385 125.106,64.989 125.517,64.409 125.662 C 63.749 125.828,63.480 126.160,63.480 126.810 C 63.480 127.657,62.804 127.980,61.472 127.770 C 61.315 127.745,61.185 128.241,61.185 128.872 C 61.185 129.892,61.058 130.019,60.038 130.019 C 59.018 130.019,58.891 130.147,58.891 131.166 C 58.891 132.186,58.764 132.314,57.744 132.314 C 56.724 132.314,56.597 132.441,56.597 133.461 C 56.597 134.484,56.471 134.608,55.433 134.608 C 54.723 134.608,54.293 134.795,54.331 135.086 C 54.508 136.450,54.263 136.902,53.346 136.902 C 52.581 136.902,52.390 137.094,52.390 137.859 C 52.390 138.775,51.938 139.020,50.574 138.843 C 50.282 138.805,50.096 139.236,50.096 139.945 C 50.096 140.983,49.972 141.109,48.948 141.109 C 47.929 141.109,47.801 141.236,47.801 142.256 C 47.801 143.276,47.674 143.403,46.654 143.403 C 45.634 143.403,45.507 143.531,45.507 144.551 C 45.507 145.570,45.379 145.698,44.359 145.698 C 43.340 145.698,43.212 145.825,43.212 146.845 C 43.212 147.814,43.064 147.992,42.256 147.992 C 41.465 147.992,41.300 148.176,41.300 149.059 C 41.300 149.971,41.148 150.124,40.249 150.111 C 39.381 150.098,39.176 150.280,39.076 151.147 C 38.964 152.123,38.334 152.455,36.998 152.244 C 36.840 152.219,36.711 152.715,36.711 153.346 C 36.711 154.366,36.584 154.493,35.564 154.493 C 34.544 154.493,34.417 154.621,34.417 155.641 C 34.417 156.660,34.289 156.788,33.270 156.788 C 32.639 156.788,32.143 156.917,32.168 157.075 C 32.379 158.411,32.046 159.040,31.071 159.152 C 30.245 159.247,29.993 159.499,29.898 160.325 C 29.803 161.151,29.577 161.377,28.846 161.377 C 28.109 161.377,27.916 161.575,27.916 162.333 C 27.916 163.140,27.737 163.289,26.769 163.289 C 25.749 163.289,25.621 163.416,25.621 164.436 C 25.621 165.456,25.494 165.583,24.474 165.583 C 23.454 165.583,23.327 165.711,23.327 166.730 C 23.327 167.750,23.199 167.878,22.180 167.878 C 21.549 167.878,21.053 168.007,21.078 168.164 C 21.309 169.630,20.981 170.172,19.861 170.172 C 18.975 170.172,18.707 170.335,18.758 170.841 C 18.894 172.178,18.721 172.467,17.782 172.467 C 17.017 172.467,16.826 172.658,16.826 173.423 C 16.826 174.361,16.537 174.535,15.201 174.399 C 14.694 174.347,14.532 174.615,14.532 175.502 C 14.532 176.621,13.990 176.950,12.524 176.718 C 12.366 176.693,12.237 177.189,12.237 177.820 C 12.237 178.840,12.110 178.967,11.090 178.967 C 10.070 178.967,9.943 179.095,9.943 180.115 C 9.943 181.138,9.817 181.262,8.779 181.262 C 8.069 181.262,7.639 181.449,7.677 181.740 C 7.854 183.104,7.609 183.556,6.692 183.556 C 5.934 183.556,5.736 183.749,5.736 184.487 C 5.736 185.218,5.511 185.444,4.685 185.539 C 3.859 185.634,3.607 185.885,3.512 186.711 C 3.400 187.687,2.770 188.019,1.434 187.808 C 1.276 187.783,1.147 188.279,1.147 188.910 C 1.147 189.675,0.956 190.057,0.574 190.057 C 0.086 190.057,0.000 191.056,0.000 196.750 C 0.000 202.443,0.086 203.442,0.574 203.442 C 0.956 203.442,1.147 203.824,1.147 204.589 L 1.147 205.736 3.442 205.736 L 5.736 205.736 5.736 206.883 C 5.736 208.019,5.757 208.031,7.839 208.031 C 9.921 208.031,9.943 208.019,9.943 206.883 L 9.943 205.736 12.237 205.736 L 14.532 205.736 14.532 204.589 C 14.532 203.569,14.659 203.442,15.679 203.442 C 16.699 203.442,16.826 203.314,16.826 202.294 C 16.826 201.326,16.975 201.147,17.782 201.147 C 18.589 201.147,18.738 200.969,18.738 200.000 C 18.738 198.980,18.866 198.853,19.885 198.853 C 20.854 198.853,21.033 198.704,21.033 197.897 C 21.033 197.089,21.211 196.941,22.180 196.941 C 23.199 196.941,23.327 196.813,23.327 195.793 C 23.327 194.774,23.454 194.646,24.474 194.646 C 25.494 194.646,25.621 194.519,25.621 193.499 C 25.621 192.479,25.749 192.352,26.769 192.352 C 27.400 192.352,27.895 192.223,27.871 192.065 C 27.656 190.708,27.981 190.057,28.872 190.057 C 29.679 190.057,29.828 189.879,29.828 188.910 C 29.828 187.890,29.955 187.763,30.975 187.763 C 31.995 187.763,32.122 187.635,32.122 186.616 C 32.122 185.596,32.250 185.468,33.270 185.468 C 34.238 185.468,34.417 185.320,34.417 184.512 C 34.417 183.705,34.595 183.556,35.564 183.556 C 36.584 183.556,36.711 183.429,36.711 182.409 C 36.711 181.389,36.839 181.262,37.859 181.262 C 38.878 181.262,39.006 181.134,39.006 180.115 C 39.006 179.095,39.133 178.967,40.153 178.967 C 41.173 178.967,41.300 178.840,41.300 177.820 C 41.300 176.851,41.449 176.673,42.256 176.673 C 43.064 176.673,43.212 176.495,43.212 175.526 C 43.212 174.506,43.340 174.379,44.359 174.379 C 45.328 174.379,45.507 174.230,45.507 173.423 C 45.507 172.532,46.158 172.207,47.514 172.421 C 47.672 172.446,47.801 171.950,47.801 171.319 C 47.801 170.300,47.929 170.172,48.948 170.172 C 49.968 170.172,50.096 170.045,50.096 169.025 C 50.096 168.005,50.223 167.878,51.243 167.878 C 52.263 167.878,52.390 167.750,52.390 166.730 C 52.390 165.762,52.539 165.583,53.346 165.583 C 54.153 165.583,54.302 165.405,54.302 164.436 C 54.302 163.416,54.430 163.289,55.449 163.289 C 56.418 163.289,56.597 163.140,56.597 162.333 C 56.597 161.525,56.775 161.377,57.744 161.377 C 58.758 161.377,58.891 161.246,58.891 160.255 C 58.891 159.315,59.062 159.113,59.943 159.012 C 60.769 158.917,61.020 158.665,61.115 157.839 C 61.217 156.959,61.419 156.788,62.358 156.788 C 63.350 156.788,63.480 156.655,63.480 155.641 C 63.480 154.672,63.629 154.493,64.436 154.493 C 65.243 154.493,65.392 154.315,65.392 153.346 C 65.392 152.326,65.519 152.199,66.539 152.199 C 67.559 152.199,67.686 152.071,67.686 151.052 C 67.686 150.032,67.814 149.904,68.834 149.904 C 69.794 149.904,69.981 149.753,69.981 148.974 C 69.981 148.243,70.207 148.017,71.033 147.922 C 71.852 147.828,72.110 147.574,72.203 146.773 C 72.295 145.978,72.555 145.717,73.350 145.625 C 74.151 145.533,74.405 145.274,74.500 144.455 C 74.595 143.629,74.820 143.403,75.551 143.403 C 76.330 143.403,76.482 143.217,76.482 142.256 C 76.482 141.236,76.609 141.109,77.629 141.109 C 78.649 141.109,78.776 140.982,78.776 139.962 C 78.776 138.942,78.904 138.815,79.924 138.815 C 80.892 138.815,81.071 138.666,81.071 137.859 C 81.071 137.051,81.249 136.902,82.218 136.902 C 83.232 136.902,83.365 136.772,83.365 135.781 C 83.365 134.841,83.536 134.639,84.417 134.538 C 85.243 134.443,85.494 134.191,85.589 133.365 C 85.691 132.484,85.893 132.314,86.832 132.314 C 87.824 132.314,87.954 132.180,87.954 131.166 C 87.954 130.198,88.103 130.019,88.910 130.019 C 89.717 130.019,89.866 129.841,89.866 128.872 C 89.866 127.852,89.994 127.725,91.013 127.725 C 92.033 127.725,92.161 127.597,92.161 126.577 C 92.161 125.558,92.288 125.430,93.308 125.430 C 94.268 125.430,94.455 125.279,94.455 124.500 C 94.455 123.769,94.681 123.543,95.507 123.448 C 96.326 123.354,96.585 123.100,96.677 122.298 C 96.769 121.504,97.029 121.243,97.824 121.151 C 98.626 121.059,98.879 120.800,98.974 119.981 C 99.069 119.155,99.294 118.929,100.025 118.929 C 100.804 118.929,100.956 118.742,100.956 117.782 C 100.956 116.762,101.083 116.635,102.103 116.635 C 103.123 116.635,103.250 116.507,103.250 115.488 C 103.250 114.468,103.378 114.340,104.398 114.340 C 105.358 114.340,105.545 114.189,105.545 113.410 C 105.545 112.679,105.771 112.453,106.597 112.358 C 107.416 112.264,107.674 112.010,107.767 111.209 C 107.859 110.414,108.119 110.153,108.914 110.061 C 109.715 109.969,109.969 109.710,110.064 108.891 C 110.159 108.065,110.384 107.839,111.115 107.839 C 111.894 107.839,112.046 107.653,112.046 106.692 C 112.046 105.672,112.173 105.545,113.193 105.545 C 114.213 105.545,114.340 105.417,114.340 104.398 C 114.340 103.378,114.468 103.250,115.488 103.250 C 116.456 103.250,116.635 103.102,116.635 102.294 C 116.635 101.487,116.813 101.338,117.782 101.338 C 118.796 101.338,118.929 101.208,118.929 100.217 C 118.929 99.277,119.100 99.075,119.981 98.974 C 120.807 98.879,121.058 98.627,121.154 97.801 C 121.255 96.920,121.457 96.750,122.396 96.750 C 123.388 96.750,123.518 96.616,123.518 95.602 C 123.518 94.634,123.667 94.455,124.474 94.455 C 125.281 94.455,125.430 94.277,125.430 93.308 C 125.430 92.288,125.558 92.161,126.577 92.161 C 127.597 92.161,127.725 92.033,127.725 91.013 C 127.725 89.994,127.852 89.866,128.872 89.866 C 129.832 89.866,130.019 89.715,130.019 88.936 C 130.019 88.205,130.245 87.979,131.071 87.884 C 131.890 87.790,132.149 87.536,132.241 86.734 C 132.333 85.940,132.594 85.679,133.388 85.587 C 134.190 85.495,134.444 85.236,134.538 84.417 C 134.633 83.591,134.859 83.365,135.589 83.365 C 136.369 83.365,136.520 83.178,136.520 82.218 C 136.520 81.198,136.648 81.071,137.667 81.071 C 138.687 81.071,138.815 80.943,138.815 79.924 C 138.815 78.904,138.942 78.776,139.962 78.776 C 140.922 78.776,141.109 78.625,141.109 77.846 C 141.109 77.115,141.335 76.889,142.161 76.794 C 142.980 76.700,143.238 76.446,143.331 75.645 C 143.423 74.850,143.683 74.589,144.478 74.497 C 145.280 74.405,145.533 74.146,145.628 73.327 C 145.723 72.501,145.948 72.275,146.679 72.275 C 147.458 72.275,147.610 72.089,147.610 71.128 C 147.610 70.108,147.737 69.981,148.757 69.981 C 149.777 69.981,149.904 69.853,149.904 68.834 C 149.904 67.814,150.032 67.686,151.052 67.686 C 152.020 67.686,152.199 67.538,152.199 66.730 C 152.199 65.923,152.377 65.774,153.346 65.774 C 154.360 65.774,154.493 65.644,154.493 64.653 C 154.493 63.713,154.664 63.511,155.545 63.410 C 156.371 63.315,156.623 63.063,156.718 62.237 C 156.813 61.411,157.038 61.185,157.769 61.185 C 158.548 61.185,158.700 60.999,158.700 60.038 C 158.700 59.018,158.827 58.891,159.847 58.891 C 160.867 58.891,160.994 58.764,160.994 57.744 C 160.994 56.724,161.122 56.597,162.141 56.597 C 163.161 56.597,163.289 56.469,163.289 55.449 C 163.289 54.430,163.416 54.302,164.436 54.302 C 165.396 54.302,165.583 54.151,165.583 53.371 C 165.583 52.641,165.809 52.415,166.635 52.320 C 167.454 52.226,167.713 51.972,167.805 51.170 C 167.897 50.376,168.158 50.115,168.952 50.023 C 169.754 49.931,170.008 49.672,170.102 48.853 C 170.197 48.027,170.423 47.801,171.154 47.801 C 171.933 47.801,172.084 47.614,172.084 46.654 C 172.084 45.634,172.212 45.507,173.231 45.507 C 174.251 45.507,174.379 45.379,174.379 44.359 C 174.379 43.340,174.506 43.212,175.526 43.212 C 176.486 43.212,176.673 43.061,176.673 42.282 C 176.673 41.551,176.899 41.325,177.725 41.230 C 178.544 41.136,178.803 40.882,178.895 40.081 C 178.987 39.286,179.247 39.025,180.042 38.933 C 180.844 38.841,181.097 38.582,181.192 37.763 C 181.287 36.937,181.512 36.711,182.243 36.711 C 183.022 36.711,183.174 36.524,183.174 35.564 C 183.174 34.544,183.301 34.417,184.321 34.417 C 185.341 34.417,185.468 34.289,185.468 33.270 C 185.468 32.250,185.596 32.122,186.616 32.122 C 187.635 32.122,187.763 31.995,187.763 30.975 C 187.763 29.955,187.890 29.828,188.910 29.828 C 189.871 29.828,190.057 29.676,190.057 28.897 C 190.057 28.166,190.283 27.941,191.109 27.846 C 191.935 27.751,192.187 27.499,192.282 26.673 C 192.377 25.847,192.602 25.621,193.333 25.621 C 194.112 25.621,194.264 25.435,194.264 24.474 C 194.264 23.454,194.391 23.327,195.411 23.327 C 196.431 23.327,196.558 23.199,196.558 22.180 L 196.558 21.033 198.853 21.033 L 201.147 21.033 201.147 22.180 C 201.147 23.199,201.275 23.327,202.294 23.327 C 203.314 23.327,203.442 23.454,203.442 24.474 C 203.442 25.494,203.569 25.621,204.589 25.621 C 205.609 25.621,205.736 25.749,205.736 26.769 C 205.736 27.737,205.885 27.916,206.692 27.916 C 207.457 27.916,207.648 28.107,207.648 28.872 C 207.648 29.679,207.827 29.828,208.795 29.828 C 209.815 29.828,209.943 29.955,209.943 30.975 C 209.943 31.995,210.070 32.122,211.090 32.122 C 212.110 32.122,212.237 32.250,212.237 33.270 C 212.237 34.289,212.365 34.417,213.384 34.417 C 214.404 34.417,214.532 34.544,214.532 35.564 C 214.532 36.584,214.659 36.711,215.679 36.711 C 216.693 36.711,216.826 36.842,216.826 37.833 C 216.826 38.773,216.997 38.975,217.878 39.076 C 218.712 39.172,218.929 39.394,218.929 40.153 C 218.929 40.912,219.146 41.134,219.981 41.230 C 220.807 41.325,221.033 41.551,221.033 42.282 C 221.033 43.061,221.219 43.212,222.180 43.212 C 223.199 43.212,223.327 43.340,223.327 44.359 C 223.327 45.379,223.454 45.507,224.474 45.507 C 225.494 45.507,225.621 45.634,225.621 46.654 C 225.621 47.674,225.749 47.801,226.769 47.801 C 227.788 47.801,227.916 47.929,227.916 48.948 C 227.916 49.901,228.070 50.096,228.824 50.096 C 229.527 50.096,229.784 50.355,229.962 51.243 C 230.144 52.154,230.390 52.390,231.157 52.390 C 231.932 52.390,232.122 52.579,232.122 53.346 C 232.122 54.153,232.301 54.302,233.270 54.302 C 234.289 54.302,234.417 54.430,234.417 55.449 C 234.417 56.469,234.544 56.597,235.564 56.597 C 236.584 56.597,236.711 56.724,236.711 57.744 C 236.711 58.764,236.839 58.891,237.859 58.891 C 238.878 58.891,239.006 59.018,239.006 60.038 C 239.006 61.058,239.133 61.185,240.153 61.185 C 241.173 61.185,241.300 61.313,241.300 62.333 C 241.300 63.301,241.449 63.480,242.256 63.480 C 242.830 63.480,243.231 63.709,243.260 64.054 C 243.286 64.369,243.330 64.842,243.357 65.105 C 243.383 65.368,243.663 65.606,243.978 65.635 C 244.293 65.663,244.766 65.706,245.029 65.730 C 245.292 65.755,245.507 66.205,245.507 66.730 C 245.507 67.538,245.685 67.686,246.654 67.686 C 247.674 67.686,247.801 67.814,247.801 68.834 C 247.801 69.853,247.929 69.981,248.948 69.981 C 249.968 69.981,250.096 70.108,250.096 71.128 C 250.096 72.148,250.223 72.275,251.243 72.275 C 252.263 72.275,252.390 72.403,252.390 73.423 C 252.390 74.391,252.539 74.570,253.346 74.570 C 254.251 74.570,254.365 74.726,254.457 76.093 C 254.480 76.435,255.034 76.748,255.849 76.880 C 257.285 77.114,257.677 76.328,256.806 74.963 C 256.608 74.654,256.483 73.922,256.528 73.338 C 256.585 72.592,256.429 72.275,256.006 72.275 C 255.626 72.275,255.510 72.452,255.691 72.753 C 255.896 73.094,255.798 73.085,255.348 72.720 C 254.636 72.143,253.764 72.472,254.178 73.162 C 254.368 73.478,254.273 73.471,253.862 73.139 C 253.540 72.878,253.139 72.792,252.972 72.948 C 252.805 73.104,252.749 72.973,252.848 72.658 C 252.946 72.342,253.271 72.084,253.569 72.084 C 253.867 72.084,254.164 71.713,254.229 71.259 C 254.329 70.555,254.681 70.394,256.619 70.170 C 258.811 69.915,258.891 69.867,258.891 68.796 C 258.891 67.797,259.016 67.686,260.147 67.686 C 261.162 67.686,261.800 67.284,263.480 65.583 C 265.160 63.882,265.797 63.480,266.813 63.480 C 267.568 63.480,268.069 63.288,268.069 62.998 C 268.069 62.092,269.489 61.513,270.133 62.157 C 270.447 62.471,270.908 62.683,271.155 62.626 C 271.403 62.570,271.684 62.782,271.779 63.098 C 271.932 63.607,271.906 63.607,271.545 63.098 C 271.198 62.607,271.139 62.625,271.134 63.225 C 271.131 63.618,271.338 63.856,271.606 63.767 C 272.631 63.425,272.165 61.386,271.033 61.256 C 270.152 61.154,269.981 60.952,269.981 60.013 C 269.981 59.021,269.848 58.891,268.834 58.891 C 267.797 58.891,267.685 58.771,267.674 57.648 C 267.662 56.444,267.643 56.429,267.049 57.170 C 266.551 57.791,266.480 57.809,266.667 57.266 C 266.919 56.533,266.528 56.378,265.932 56.974 C 265.683 57.223,265.523 56.944,265.463 56.157 C 265.339 54.525,265.090 54.232,264.222 54.697 C 263.553 55.055,263.480 54.961,263.480 53.742 C 263.480 52.502,263.387 52.390,262.358 52.390 C 261.419 52.390,261.217 52.219,261.115 51.338 C 261.020 50.512,260.769 50.261,259.943 50.166 C 259.062 50.064,258.891 49.863,258.891 48.923 C 258.891 47.931,258.758 47.801,257.744 47.801 C 256.724 47.801,256.597 47.674,256.597 46.654 C 256.597 45.634,256.469 45.507,255.449 45.507 C 254.426 45.507,254.302 45.381,254.302 44.343 C 254.302 43.633,254.115 43.203,253.824 43.241 C 252.718 43.384,252.390 43.160,252.390 42.256 C 252.390 41.449,252.212 41.300,251.243 41.300 C 250.223 41.300,250.096 41.173,250.096 40.153 C 250.096 39.133,249.968 39.006,248.948 39.006 C 247.929 39.006,247.801 38.878,247.801 37.859 C 247.801 36.839,247.674 36.711,246.654 36.711 C 245.634 36.711,245.507 36.584,245.507 35.564 C 245.507 34.544,245.379 34.417,244.359 34.417 C 243.359 34.417,243.212 34.280,243.212 33.351 C 243.212 32.533,243.020 32.271,242.386 32.223 C 241.458 32.153,240.896 31.476,241.171 30.759 C 241.282 30.470,240.894 30.182,240.180 30.025 C 239.264 29.824,239.006 29.564,239.006 28.842 C 239.006 28.068,238.817 27.916,237.859 27.916 C 236.839 27.916,236.711 27.788,236.711 26.769 C 236.711 25.749,236.584 25.621,235.564 25.621 C 234.544 25.621,234.417 25.494,234.417 24.474 C 234.417 23.454,234.289 23.327,233.270 23.327 C 232.250 23.327,232.122 23.199,232.122 22.180 C 232.122 21.160,231.995 21.033,230.975 21.033 C 229.946 21.033,229.828 20.910,229.828 19.844 C 229.828 18.767,229.738 18.678,228.872 18.895 C 228.010 19.111,227.916 19.021,227.916 17.981 C 227.916 16.953,227.790 16.826,226.769 16.826 C 225.749 16.826,225.621 16.699,225.621 15.679 C 225.621 14.659,225.494 14.532,224.474 14.532 C 223.454 14.532,223.327 14.404,223.327 13.384 C 223.327 12.365,223.199 12.237,222.180 12.237 C 221.160 12.237,221.033 12.110,221.033 11.090 C 221.033 10.070,220.905 9.943,219.885 9.943 C 218.862 9.943,218.738 9.817,218.738 8.779 C 218.738 8.069,218.551 7.639,218.260 7.677 C 217.154 7.820,216.826 7.596,216.826 6.692 C 216.826 5.885,216.648 5.736,215.679 5.736 C 214.659 5.736,214.532 5.609,214.532 4.589 L 214.532 3.442 212.237 3.442 L 209.943 3.442 209.943 2.294 L 209.943 1.147 205.545 1.147 C 201.891 1.147,201.147 1.050,201.147 0.574 C 201.147 0.127,200.637 0.000,198.853 0.000 C 197.068 0.000,196.558 0.127,196.558 0.574 M294.455 57.530 C 294.455 58.702,294.673 58.796,294.948 57.744 C 295.058 57.324,294.992 56.883,294.802 56.766 C 294.611 56.648,294.455 56.992,294.455 57.530 M297.610 56.875 C 298.399 56.958,299.689 56.958,300.478 56.875 C 301.267 56.793,300.621 56.725,299.044 56.725 C 297.467 56.725,296.821 56.793,297.610 56.875 M290.107 59.285 C 290.368 59.546,290.814 59.554,291.427 59.309 C 292.296 58.962,292.272 58.938,291.033 58.915 C 290.127 58.899,289.837 59.015,290.107 59.285 M289.963 62.141 C 289.967 62.983,290.045 63.282,290.137 62.806 C 290.228 62.331,290.225 61.642,290.129 61.277 C 290.033 60.911,289.958 61.300,289.963 62.141 M273.283 64.051 C 273.404 64.366,273.644 64.535,273.818 64.428 C 273.991 64.321,274.208 64.623,274.299 65.099 C 274.421 65.733,274.480 65.631,274.518 64.723 C 274.560 63.724,274.422 63.480,273.817 63.480 C 273.306 63.480,273.135 63.664,273.283 64.051 M275.335 66.157 C 276.076 66.636,276.482 66.636,276.482 66.157 C 276.482 65.946,276.095 65.777,275.621 65.780 C 274.926 65.785,274.871 65.857,275.335 66.157 M277.898 68.324 C 278.005 68.604,278.247 68.834,278.435 68.834 C 278.623 68.834,278.776 68.604,278.776 68.324 C 278.776 68.043,278.535 67.814,278.239 67.814 C 277.944 67.814,277.790 68.043,277.898 68.324 M279.975 70.425 C 280.319 70.706,280.702 71.195,280.826 71.511 C 280.949 71.826,281.012 71.656,280.965 71.132 C 280.910 70.518,280.608 70.132,280.115 70.046 C 279.423 69.925,279.409 69.961,279.975 70.425 M282.218 72.420 C 282.218 72.499,282.476 72.778,282.792 73.040 C 283.261 73.430,283.365 73.404,283.365 72.896 C 283.365 72.555,283.107 72.275,282.792 72.275 C 282.476 72.275,282.218 72.340,282.218 72.420 M290.121 73.709 C 290.265 74.280,290.613 74.560,291.154 74.540 C 291.724 74.518,291.797 74.442,291.396 74.286 C 291.080 74.164,290.616 73.790,290.363 73.456 C 289.971 72.938,289.936 72.975,290.121 73.709 M256.214 74.576 C 256.214 74.738,255.956 74.969,255.641 75.090 C 255.222 75.251,255.067 75.043,255.067 74.320 C 255.067 73.482,255.156 73.403,255.641 73.805 C 255.956 74.067,256.214 74.414,256.214 74.576 M285.133 75.621 C 285.493 77.123,285.660 77.173,285.660 75.781 C 285.660 75.115,285.484 74.570,285.270 74.570 C 285.039 74.570,284.983 74.997,285.133 75.621 M292.675 76.577 C 292.577 76.735,294.014 76.838,295.867 76.807 C 299.329 76.748,299.026 76.589,295.087 76.399 C 293.857 76.339,292.772 76.420,292.675 76.577 M310.060 76.768 C 312.649 76.834,316.779 76.834,319.238 76.767 C 321.697 76.701,319.579 76.647,314.532 76.647 C 309.484 76.647,307.472 76.701,310.060 76.768 M258.891 80.310 C 258.891 80.816,259.147 81.071,259.656 81.071 C 260.076 81.071,260.421 81.023,260.421 80.965 C 260.421 80.906,260.076 80.564,259.656 80.203 C 258.928 79.580,258.891 79.585,258.891 80.310 M263.486 84.990 C 263.482 85.440,263.762 85.650,264.340 85.629 C 264.915 85.609,265.010 85.527,264.627 85.381 C 264.312 85.261,263.927 84.973,263.773 84.742 C 263.599 84.482,263.489 84.578,263.486 84.990 M265.647 86.711 C 265.187 87.444,265.708 87.960,266.849 87.902 C 267.715 87.858,267.745 87.824,267.041 87.687 C 266.580 87.598,266.146 87.234,266.076 86.879 C 265.981 86.403,265.869 86.359,265.647 86.711 M270.008 91.109 C 269.993 91.687,270.153 92.161,270.363 92.161 C 270.812 92.161,270.812 91.867,270.363 90.822 C 270.072 90.144,270.032 90.177,270.008 91.109 M276.864 98.715 C 276.864 98.896,277.294 99.044,277.820 99.044 C 278.346 99.044,278.776 98.978,278.776 98.897 C 278.776 98.817,278.346 98.668,277.820 98.568 C 277.294 98.467,276.864 98.533,276.864 98.715 M54.405 192.830 C 54.469 194.547,54.349 194.646,52.199 194.646 L 50.096 194.646 50.096 196.750 C 50.096 198.899,49.997 199.019,48.279 198.956 C 47.905 198.942,47.801 202.086,47.801 213.449 C 47.801 228.185,48.231 232.169,48.715 221.922 C 48.995 216.005,49.065 215.643,49.796 216.373 C 50.780 217.357,52.390 216.926,52.390 215.679 C 52.390 214.543,52.411 214.532,54.497 214.532 C 57.691 214.532,60.038 213.311,60.038 211.649 C 60.038 210.763,59.837 210.328,59.369 210.206 C 59.001 210.110,59.318 210.011,60.075 209.987 C 60.945 209.959,61.716 209.647,62.178 209.137 C 63.809 207.331,65.000 206.749,65.983 207.275 C 66.485 207.544,66.789 207.936,66.658 208.147 C 66.519 208.372,66.615 208.412,66.889 208.242 C 67.146 208.083,67.258 207.669,67.138 207.323 C 66.983 206.874,67.093 206.912,67.521 207.457 C 67.852 207.878,68.283 208.179,68.478 208.126 C 68.674 208.074,68.834 208.214,68.834 208.439 C 68.834 208.677,68.505 208.743,68.044 208.596 C 67.500 208.424,67.281 208.505,67.340 208.857 C 67.386 209.139,67.303 209.644,67.154 209.981 C 67.006 210.317,66.945 211.780,67.019 213.231 L 67.154 215.870 67.229 212.906 L 67.304 209.943 68.642 209.943 C 69.739 209.943,69.981 209.800,69.981 209.155 C 69.981 208.636,69.818 208.460,69.503 208.638 C 69.120 208.854,69.120 208.805,69.503 208.393 C 70.499 207.320,70.100 205.736,68.834 205.736 L 67.686 205.736 67.686 201.338 L 67.686 196.941 66.539 196.941 C 65.519 196.941,65.392 196.813,65.392 195.793 C 65.392 194.825,65.243 194.646,64.436 194.646 C 63.545 194.646,63.220 193.995,63.435 192.639 C 63.460 192.481,61.434 192.352,58.934 192.352 C 55.542 192.352,54.392 192.473,54.405 192.830 M49.565 219.192 C 49.431 219.863,49.495 220.585,49.708 220.798 C 49.970 221.060,50.096 220.663,50.096 219.579 C 50.096 217.664,49.899 217.521,49.565 219.192 " stroke="none" fill="#e43dfa" fill-rule="evenodd"></path><path id="path2" d="M295.020 56.979 C 295.347 57.549,294.386 58.891,293.651 58.891 C 293.196 58.891,292.188 59.081,291.412 59.314 L 290.001 59.736 290.164 61.608 C 290.319 63.391,290.282 63.480,289.376 63.480 C 288.191 63.480,287.966 64.220,287.959 68.137 C 287.954 71.124,288.433 72.275,289.680 72.275 C 290.001 72.275,290.147 72.576,290.055 73.050 C 289.973 73.477,290.069 73.725,290.269 73.601 C 290.468 73.478,290.631 73.540,290.631 73.738 C 290.631 73.936,290.975 74.188,291.396 74.298 C 291.917 74.434,292.161 74.820,292.161 75.507 C 292.161 76.092,292.361 76.489,292.639 76.453 C 295.978 76.020,298.998 76.523,299.114 77.533 C 299.343 79.523,305.545 79.201,305.545 77.200 C 305.545 76.518,305.995 76.482,314.506 76.482 L 323.467 76.482 323.588 77.533 L 323.709 78.585 328.011 78.693 L 332.314 78.801 332.314 97.718 L 332.314 116.635 333.461 116.635 C 334.475 116.635,334.608 116.765,334.608 117.757 C 334.608 118.670,334.788 118.901,335.576 118.999 C 336.108 119.066,336.555 119.293,336.570 119.503 C 336.679 121.116,337.150 121.249,342.371 121.139 L 347.419 121.033 347.540 119.981 C 347.641 119.100,347.843 118.929,348.783 118.929 C 349.774 118.929,349.904 118.796,349.904 117.782 C 349.904 116.765,350.033 116.635,351.040 116.635 L 352.175 116.635 352.193 94.979 C 352.211 72.484,352.196 72.275,350.622 72.275 C 350.016 72.275,349.904 71.979,349.904 70.377 C 349.904 68.618,348.925 67.219,347.992 67.644 C 347.887 67.692,347.707 67.335,347.593 66.849 C 347.451 66.246,347.034 65.906,346.276 65.775 C 345.666 65.670,345.210 65.411,345.261 65.201 C 345.466 64.364,344.966 63.480,344.288 63.480 C 343.843 63.480,343.407 63.045,343.138 62.333 C 342.735 61.265,342.570 61.185,340.760 61.185 C 338.965 61.185,338.815 61.115,338.815 60.274 C 338.815 59.251,338.010 58.905,335.615 58.896 C 334.313 58.892,334.161 58.797,334.342 58.105 C 334.498 57.510,334.300 57.224,333.526 56.925 C 332.498 56.529,294.792 56.581,295.020 56.979 M268.722 62.131 C 268.363 62.393,268.069 62.804,268.069 63.044 C 268.069 63.284,267.504 63.480,266.813 63.480 C 265.797 63.480,265.160 63.882,263.480 65.583 C 261.800 67.284,261.162 67.686,260.147 67.686 C 259.016 67.686,258.891 67.797,258.891 68.796 C 258.891 69.867,258.811 69.915,256.619 70.170 C 254.681 70.394,254.329 70.555,254.229 71.259 C 254.164 71.713,253.867 72.084,253.569 72.084 C 253.271 72.084,252.946 72.342,252.848 72.658 C 252.749 72.973,252.805 73.104,252.972 72.948 C 253.139 72.792,253.540 72.878,253.862 73.139 C 254.273 73.471,254.368 73.478,254.178 73.162 C 253.764 72.472,254.636 72.143,255.348 72.720 C 255.798 73.085,255.896 73.094,255.691 72.753 C 255.510 72.452,255.626 72.275,256.006 72.275 C 256.429 72.275,256.585 72.592,256.528 73.338 C 256.483 73.922,256.608 74.654,256.806 74.963 C 257.246 75.653,257.321 77.267,256.901 77.007 C 256.733 76.904,256.597 76.980,256.597 77.177 C 256.597 77.787,257.825 78.591,258.564 78.466 C 259.048 78.384,259.201 78.521,259.053 78.905 C 258.817 79.522,260.346 81.162,260.861 80.844 C 261.039 80.733,261.185 81.099,261.185 81.655 C 261.185 82.424,261.456 82.769,262.310 83.091 C 262.929 83.325,263.524 83.869,263.633 84.301 C 263.741 84.733,264.225 85.258,264.707 85.468 C 265.189 85.679,265.753 86.238,265.961 86.711 C 266.168 87.185,266.601 87.572,266.922 87.572 C 267.243 87.572,267.675 87.958,267.883 88.430 C 268.090 88.903,268.715 89.506,269.270 89.770 C 269.826 90.034,270.389 90.681,270.521 91.206 C 270.675 91.822,271.029 92.161,271.518 92.161 C 271.992 92.161,272.275 92.418,272.275 92.849 C 272.275 93.730,273.000 94.455,273.881 94.455 C 274.324 94.455,274.570 94.740,274.570 95.253 C 274.570 95.786,274.945 96.193,275.701 96.478 C 276.364 96.728,276.878 97.228,276.943 97.688 C 277.012 98.163,277.393 98.518,277.916 98.593 C 278.726 98.708,278.935 99.043,278.817 100.045 C 278.740 100.694,279.839 101.453,280.492 101.202 C 281.045 100.990,281.259 101.542,281.099 102.772 C 281.061 103.064,281.492 103.250,282.201 103.250 C 283.067 103.250,283.365 103.427,283.365 103.939 C 283.365 104.820,284.090 105.545,284.971 105.545 C 285.379 105.545,285.660 105.825,285.660 106.233 C 285.660 107.114,286.385 107.839,287.266 107.839 C 287.705 107.839,287.954 108.123,287.954 108.623 C 287.954 109.112,288.350 109.578,289.011 109.865 C 289.653 110.144,290.066 110.619,290.063 111.073 C 290.059 111.554,290.392 111.899,290.999 112.043 C 291.589 112.182,292.024 112.617,292.162 113.207 C 292.315 113.863,292.683 114.185,293.375 114.266 C 294.128 114.355,294.422 114.654,294.593 115.509 C 294.810 116.592,294.898 116.635,296.931 116.635 L 299.044 116.635 299.044 118.748 C 299.044 120.783,299.085 120.869,300.176 121.087 C 300.799 121.211,301.295 121.422,301.278 121.555 C 301.150 122.579,301.475 123.156,302.298 123.362 C 302.879 123.508,303.347 123.963,303.486 124.516 C 303.644 125.144,303.988 125.430,304.583 125.430 C 305.240 125.430,305.505 125.708,305.679 126.577 C 305.857 127.470,306.112 127.725,306.826 127.725 C 307.540 127.725,307.795 127.980,307.973 128.872 C 308.154 129.773,308.404 130.019,309.143 130.019 C 309.884 130.019,310.109 130.241,310.204 131.071 C 310.299 131.897,310.551 132.148,311.377 132.243 C 312.206 132.339,312.428 132.563,312.428 133.305 C 312.428 134.042,312.674 134.294,313.569 134.473 C 314.197 134.598,314.619 134.849,314.508 135.029 C 314.158 135.595,315.099 136.902,315.857 136.902 C 316.317 136.902,316.626 137.216,316.704 137.763 C 316.791 138.373,317.125 138.658,317.854 138.742 C 318.649 138.834,318.910 139.094,319.002 139.889 C 319.093 140.684,319.354 140.945,320.149 141.037 C 320.944 141.128,321.204 141.389,321.296 142.184 C 321.388 142.979,321.649 143.239,322.443 143.331 C 323.238 143.423,323.499 143.684,323.591 144.476 C 323.677 145.221,323.974 145.556,324.670 145.696 C 325.203 145.803,325.618 146.144,325.603 146.463 C 325.551 147.506,326.262 147.984,327.774 147.925 C 329.071 147.874,329.235 147.768,329.028 147.117 C 328.871 146.622,328.934 146.456,329.213 146.629 C 329.446 146.773,329.637 146.722,329.637 146.517 C 329.637 146.312,329.439 146.078,329.197 145.997 C 328.217 145.671,329.756 143.602,331.073 143.475 C 332.105 143.375,332.314 143.196,332.314 142.410 C 332.314 141.153,334.658 138.815,335.918 138.815 C 336.462 138.815,337.282 138.372,337.827 137.784 C 338.731 136.809,338.820 136.789,339.498 137.402 C 340.383 138.203,341.109 138.237,341.109 137.476 C 341.109 137.161,341.441 136.902,341.847 136.902 C 342.312 136.902,342.631 136.595,342.708 136.072 C 342.878 134.915,343.591 134.796,344.559 135.763 C 345.515 136.720,345.755 136.631,345.443 135.436 C 345.313 134.939,344.956 134.608,344.598 134.651 C 343.607 134.770,342.484 134.175,343.045 133.829 C 343.802 133.361,343.133 132.314,342.077 132.314 C 341.297 132.314,341.109 132.126,341.109 131.348 C 341.109 130.585,340.873 130.335,339.983 130.157 C 339.123 129.985,338.829 129.694,338.740 128.924 C 338.645 128.101,338.430 127.920,337.572 127.937 C 336.669 127.955,336.520 127.806,336.520 126.886 C 336.520 126.011,336.352 125.813,335.612 125.813 C 334.909 125.813,334.652 125.554,334.474 124.665 C 334.292 123.754,334.046 123.518,333.279 123.518 C 332.604 123.518,332.314 123.311,332.314 122.830 C 332.314 121.958,331.591 121.224,330.733 121.224 C 330.294 121.224,330.029 120.868,329.949 120.172 C 329.882 119.594,329.613 119.099,329.350 119.073 C 329.087 119.046,328.625 119.003,328.324 118.977 C 328.022 118.951,327.721 118.456,327.654 117.878 C 327.559 117.052,327.308 116.800,326.482 116.705 C 325.671 116.612,325.430 116.381,325.430 115.695 C 325.430 115.076,325.152 114.736,324.516 114.576 C 323.963 114.437,323.508 113.969,323.362 113.388 C 323.189 112.699,322.864 112.428,322.210 112.428 C 321.541 112.428,321.192 112.123,320.899 111.281 C 320.635 110.526,320.239 110.134,319.739 110.134 C 319.195 110.134,318.946 109.836,318.859 109.082 C 318.764 108.256,318.512 108.005,317.686 107.910 C 316.990 107.829,316.635 107.565,316.635 107.126 C 316.635 106.268,315.901 105.545,315.029 105.545 C 314.549 105.545,314.340 105.255,314.340 104.589 C 314.340 103.683,314.182 103.568,312.811 103.479 C 312.482 103.458,312.186 102.994,312.116 102.390 C 312.014 101.502,311.816 101.338,310.841 101.338 C 310.082 101.338,309.746 101.175,309.859 100.860 C 310.135 100.090,309.405 99.044,308.591 99.044 C 308.122 99.044,307.839 98.785,307.839 98.356 C 307.839 97.475,307.114 96.750,306.233 96.750 C 305.790 96.750,305.545 96.465,305.545 95.951 C 305.545 95.421,305.171 95.012,304.431 94.733 C 303.664 94.443,303.250 93.972,303.099 93.219 C 302.978 92.617,302.662 92.153,302.396 92.188 C 301.345 92.326,301.004 92.125,300.887 91.300 C 300.799 90.677,300.466 90.406,299.683 90.316 C 298.887 90.225,298.662 90.035,298.829 89.598 C 299.111 88.865,298.403 87.954,297.551 87.954 C 297.198 87.954,296.726 87.446,296.484 86.807 C 296.194 86.037,295.789 85.660,295.253 85.660 C 294.814 85.660,294.452 85.445,294.449 85.182 C 294.439 84.389,293.848 83.703,293.078 83.592 C 292.671 83.533,292.298 83.124,292.230 82.661 C 292.104 81.811,290.920 80.910,290.492 81.337 C 290.360 81.469,290.062 81.033,289.830 80.368 C 289.422 79.196,289.110 78.987,287.998 79.142 C 287.652 79.190,287.552 78.997,287.710 78.585 C 288.006 77.814,287.128 76.864,286.117 76.864 C 285.596 76.864,285.304 76.520,285.143 75.717 C 284.979 74.896,284.694 74.570,284.140 74.570 C 283.714 74.570,283.365 74.338,283.365 74.055 C 283.365 73.363,281.977 72.143,281.515 72.429 C 281.311 72.554,280.971 72.157,280.758 71.546 C 280.545 70.935,280.012 70.322,279.574 70.182 C 279.135 70.043,278.776 69.771,278.776 69.577 C 278.776 68.908,277.515 67.754,276.999 67.952 C 276.550 68.125,276.317 67.687,276.423 66.867 C 276.440 66.731,275.945 66.409,275.321 66.151 C 274.616 65.859,274.187 65.401,274.187 64.941 C 274.187 64.533,274.033 64.295,273.845 64.411 C 273.657 64.528,273.397 64.347,273.268 64.011 C 273.101 63.576,272.758 63.468,272.081 63.638 C 271.333 63.825,271.129 63.731,271.134 63.200 C 271.139 62.618,271.196 62.603,271.545 63.098 C 271.906 63.607,271.933 63.607,271.787 63.098 C 271.696 62.782,271.339 62.574,270.993 62.636 C 270.647 62.698,270.363 62.587,270.363 62.390 C 270.363 61.780,269.408 61.629,268.722 62.131 M255.067 74.320 C 255.067 75.043,255.222 75.251,255.641 75.090 C 255.956 74.969,256.214 74.738,256.214 74.576 C 256.214 74.414,255.956 74.067,255.641 73.805 C 255.156 73.403,255.067 73.482,255.067 74.320 M343.027 136.042 C 343.037 137.241,343.679 137.928,344.248 137.350 C 344.652 136.939,344.646 136.870,344.216 136.971 C 343.927 137.038,343.603 136.855,343.497 136.562 C 343.363 136.193,343.465 136.128,343.832 136.349 C 344.280 136.619,344.280 136.569,343.835 136.020 C 343.171 135.202,343.020 135.207,343.027 136.042 M327.755 149.235 C 327.720 149.997,329.045 150.171,329.483 149.462 C 329.669 149.160,329.500 149.086,328.950 149.230 C 328.507 149.346,328.063 149.244,327.964 149.003 C 327.866 148.763,327.771 148.867,327.755 149.235 M330.019 151.220 C 330.019 152.072,330.618 152.241,330.681 151.408 C 330.711 151.001,330.575 150.669,330.378 150.669 C 330.181 150.669,330.019 150.917,330.019 151.220 M336.902 158.700 C 336.902 158.910,337.290 159.080,337.763 159.076 C 338.459 159.072,338.514 159.000,338.050 158.700 C 337.308 158.221,336.902 158.221,336.902 158.700 M62.988 208.421 C 61.761 209.501,60.888 209.956,59.980 209.987 C 59.276 210.011,59.001 210.110,59.369 210.206 C 59.837 210.328,60.038 210.763,60.038 211.649 C 60.038 213.311,57.691 214.532,54.497 214.532 C 52.411 214.532,52.390 214.543,52.390 215.679 C 52.390 216.926,50.780 217.357,49.796 216.373 C 49.065 215.643,48.995 216.005,48.715 221.922 C 48.569 225.023,48.303 227.651,48.125 227.761 C 47.947 227.871,47.838 256.044,47.882 290.367 C 47.927 324.690,48.019 350.880,48.087 348.566 C 48.171 345.724,48.329 344.546,48.574 344.933 C 48.826 345.331,48.960 344.689,49.013 342.830 C 49.083 340.386,49.102 340.329,49.231 342.171 C 49.384 344.372,50.096 344.581,50.096 342.425 C 50.096 341.218,50.190 341.109,51.243 341.109 C 52.378 341.109,52.390 341.088,52.390 339.006 C 52.390 336.924,52.402 336.902,53.537 336.902 C 54.217 336.902,54.685 336.702,54.685 336.411 C 54.685 336.141,55.201 335.615,55.832 335.242 L 56.979 334.565 56.979 335.734 C 56.979 336.895,56.992 336.902,59.082 336.902 C 61.164 336.902,61.185 336.891,61.185 335.755 C 61.185 334.736,61.313 334.608,62.333 334.608 L 63.480 334.608 63.480 332.314 L 63.480 330.019 64.627 330.019 C 65.258 330.019,65.774 329.847,65.774 329.637 C 65.774 329.426,65.970 329.254,66.209 329.254 C 66.504 329.254,66.567 329.811,66.405 330.995 C 66.253 332.102,66.304 332.650,66.544 332.502 C 66.784 332.353,66.922 333.875,66.922 336.689 C 66.922 339.381,67.071 341.109,67.304 341.109 C 67.558 341.109,67.663 319.008,67.616 275.430 C 67.578 239.307,67.437 211.128,67.304 212.811 L 67.062 215.870 66.992 212.929 C 66.953 211.311,67.086 209.886,67.287 209.762 C 67.488 209.637,67.548 209.263,67.421 208.930 C 67.237 208.453,67.362 208.380,68.011 208.586 C 68.502 208.742,68.834 208.682,68.834 208.439 C 68.834 208.214,68.674 208.074,68.478 208.126 C 68.283 208.179,67.852 207.878,67.521 207.457 C 67.093 206.912,66.983 206.874,67.138 207.323 C 67.258 207.669,67.146 208.083,66.889 208.242 C 66.590 208.427,66.519 208.372,66.694 208.090 C 66.844 207.847,66.774 207.648,66.539 207.648 C 66.304 207.648,66.195 207.513,66.298 207.347 C 66.939 206.309,64.481 207.106,62.988 208.421 M50.096 219.579 C 50.096 220.663,49.970 221.060,49.708 220.798 C 49.367 220.457,49.582 217.973,49.952 217.973 C 50.031 217.973,50.096 218.696,50.096 219.579 M152.342 275.131 C 152.224 275.439,152.215 275.913,152.324 276.182 C 152.432 276.452,152.534 276.298,152.551 275.841 C 152.568 275.383,152.882 274.930,153.250 274.833 C 153.878 274.669,153.877 274.656,153.238 274.614 C 152.864 274.590,152.460 274.822,152.342 275.131 M150.669 277.438 C 150.669 277.753,150.823 278.011,151.011 278.011 C 151.199 278.011,151.451 277.753,151.572 277.438 C 151.706 277.088,151.573 276.864,151.231 276.864 C 150.922 276.864,150.669 277.122,150.669 277.438 M147.773 283.109 C 147.666 283.388,147.630 285.152,147.693 287.028 L 147.808 290.440 147.996 286.519 C 148.182 282.631,148.149 282.129,147.773 283.109 " stroke="none" fill="#eb5cf4" fill-rule="evenodd"></path><path id="path3" d="M351.416 297.323 C 351.313 301.114,351.280 301.284,351.081 299.044 C 350.871 296.682,350.844 296.625,350.523 297.897 L 350.185 299.235 349.949 298.150 L 349.713 297.065 348.786 298.055 C 348.213 298.667,347.447 299.044,346.778 299.044 C 345.850 299.044,345.698 299.194,345.698 300.116 C 345.698 301.528,343.570 303.633,342.142 303.633 C 341.479 303.633,341.109 303.838,341.109 304.207 C 341.109 304.557,340.752 304.780,340.194 304.780 C 339.691 304.780,339.192 305.006,339.086 305.282 C 338.947 305.645,339.200 305.738,340.001 305.621 L 341.109 305.458 341.109 307.849 C 341.109 310.625,340.603 311.250,338.337 311.269 C 337.322 311.278,336.902 311.449,336.902 311.855 C 336.902 312.237,336.520 312.428,335.755 312.428 C 334.699 312.428,334.608 312.322,334.608 311.090 C 334.608 310.354,334.436 309.751,334.226 309.751 C 334.002 309.751,333.841 311.062,333.837 312.906 C 333.833 315.084,333.717 315.884,333.461 315.488 C 333.187 315.064,333.068 315.365,333.007 316.635 C 332.961 317.581,332.821 316.205,332.696 313.576 C 332.571 310.946,332.434 320.099,332.391 333.913 L 332.314 359.031 331.262 359.152 C 330.453 359.245,330.184 359.503,330.095 360.267 L 329.980 361.260 298.177 361.470 C 275.495 361.620,266.334 361.801,266.234 362.102 C 266.156 362.334,265.548 362.536,264.882 362.550 C 263.733 362.574,263.715 362.597,264.532 362.991 C 265.111 363.270,265.392 363.745,265.392 364.444 C 265.392 365.726,264.369 365.955,258.604 365.961 L 254.685 365.966 254.685 368.069 C 254.685 370.057,254.737 370.172,255.641 370.172 C 256.448 370.172,256.597 370.351,256.597 371.319 C 256.597 372.936,254.891 372.932,253.338 371.311 L 252.231 370.155 248.957 373.414 C 245.308 377.046,243.794 377.657,243.486 375.621 C 243.338 374.643,243.323 374.656,243.270 375.813 C 243.219 376.914,243.087 377.055,242.112 377.055 C 241.506 377.055,240.410 377.307,239.675 377.614 C 238.940 377.921,238.230 378.064,238.098 377.933 C 237.966 377.801,237.859 377.912,237.859 378.180 C 237.859 378.456,238.107 378.571,238.432 378.447 C 239.206 378.150,239.160 378.749,238.359 379.399 C 237.801 379.851,237.757 379.844,238.038 379.350 C 238.217 379.034,238.223 378.904,238.051 379.060 C 237.878 379.216,237.507 379.152,237.224 378.917 C 236.942 378.683,236.711 378.646,236.711 378.836 C 236.711 379.324,238.131 380.480,238.400 380.211 C 238.523 380.088,238.623 380.274,238.623 380.625 C 238.623 381.098,238.967 381.262,239.962 381.262 C 240.897 381.262,241.300 381.435,241.300 381.836 C 241.300 382.774,251.881 382.680,252.126 381.740 C 252.293 381.103,252.303 381.103,252.346 381.740 C 252.408 382.683,332.314 382.794,332.314 381.851 C 332.314 381.416,333.009 381.268,335.468 381.182 C 338.580 381.072,338.625 381.057,338.743 380.037 C 338.855 379.066,338.991 378.997,341.037 378.890 C 343.093 378.783,343.219 378.719,343.333 377.725 C 343.428 376.901,343.655 376.673,344.378 376.673 C 345.035 376.673,345.368 376.407,345.533 375.750 C 345.671 375.200,346.137 374.734,346.687 374.596 C 347.344 374.431,347.610 374.098,347.610 373.441 C 347.610 372.718,347.838 372.491,348.662 372.396 C 349.709 372.276,349.714 372.262,349.823 368.953 C 349.933 365.656,349.941 365.630,350.971 365.512 L 352.008 365.392 352.105 331.870 C 352.159 313.433,352.052 297.171,351.867 295.733 L 351.531 293.117 351.416 297.323 M260.247 363.063 C 260.793 363.462,261.182 363.498,261.754 363.202 C 262.976 362.568,262.938 362.524,261.176 362.524 C 259.649 362.524,259.571 362.569,260.247 363.063 " stroke="none" fill="#fc9fe4" fill-rule="evenodd"></path><path id="path4" d="M395.482 205.807 C 395.660 206.742,395.605 206.793,394.756 206.470 C 394.222 206.267,393.927 206.265,394.050 206.464 C 394.167 206.653,394.742 206.975,395.328 207.180 C 396.561 207.609,396.897 206.429,395.846 205.360 C 395.355 204.862,395.311 204.915,395.482 205.807 M388.029 206.636 C 387.887 207.004,387.927 207.209,388.117 207.092 C 388.307 206.975,388.532 207.086,388.616 207.340 C 388.711 207.626,388.867 207.546,389.027 207.131 C 389.168 206.763,389.128 206.557,388.938 206.675 C 388.748 206.792,388.524 206.681,388.439 206.427 C 388.344 206.141,388.188 206.220,388.029 206.636 M390.057 207.648 C 390.057 207.861,391.077 208.031,392.352 208.031 C 393.627 208.031,394.646 207.861,394.646 207.648 C 394.646 207.436,393.627 207.266,392.352 207.266 C 391.077 207.266,390.057 207.436,390.057 207.648 M351.111 235.755 C 351.069 236.597,350.887 237.917,350.707 238.689 C 350.528 239.462,350.524 240.238,350.700 240.413 C 350.876 240.589,350.857 240.990,350.659 241.303 C 350.371 241.760,350.297 241.701,350.293 241.013 C 350.286 240.018,350.068 239.977,348.757 240.727 C 348.231 241.027,347.274 241.279,346.630 241.287 C 345.839 241.296,345.101 241.673,344.359 242.447 C 343.648 243.190,342.881 243.595,342.185 243.595 C 341.292 243.595,341.109 243.757,341.109 244.551 C 341.109 245.462,340.997 245.510,338.719 245.568 C 337.399 245.602,336.886 245.698,337.572 245.783 C 340.027 246.088,338.273 250.096,335.684 250.096 C 334.734 250.096,334.687 249.988,334.410 247.132 C 334.251 245.502,334.033 244.426,333.925 244.742 C 333.817 245.057,333.589 245.407,333.419 245.519 C 332.778 245.942,332.109 295.469,332.562 308.987 C 332.734 314.140,332.933 317.590,333.003 316.654 C 333.093 315.441,333.231 315.111,333.481 315.507 C 333.710 315.869,333.834 314.970,333.837 312.906 C 333.841 311.062,334.002 309.751,334.226 309.751 C 334.436 309.751,334.608 310.354,334.608 311.090 C 334.608 312.322,334.699 312.428,335.755 312.428 C 336.520 312.428,336.902 312.237,336.902 311.855 C 336.902 311.449,337.322 311.278,338.337 311.269 C 340.603 311.250,341.109 310.625,341.109 307.849 L 341.109 305.458 340.001 305.621 C 339.200 305.738,338.947 305.645,339.086 305.282 C 339.192 305.006,339.691 304.780,340.194 304.780 C 340.752 304.780,341.109 304.557,341.109 304.207 C 341.109 303.833,341.483 303.633,342.181 303.633 C 343.593 303.633,345.698 301.505,345.698 300.077 C 345.698 299.198,345.859 299.044,346.778 299.044 C 347.447 299.044,348.213 298.667,348.786 298.055 L 349.713 297.065 349.949 298.150 L 350.185 299.235 350.523 297.897 C 350.844 296.625,350.871 296.682,351.081 299.044 C 351.282 301.303,351.314 301.147,351.428 297.323 C 351.532 293.855,351.600 293.452,351.816 295.029 C 351.961 296.080,352.079 282.830,352.079 265.583 C 352.079 248.337,351.966 235.086,351.829 236.138 L 351.579 238.050 351.384 236.138 C 351.197 234.302,351.186 234.287,351.111 235.755 M253.236 309.007 C 253.164 309.869,252.966 309.995,251.559 310.078 C 250.387 310.148,249.657 310.472,248.810 311.300 C 248.086 312.008,247.256 312.428,246.581 312.428 C 245.642 312.428,245.507 312.573,245.507 313.576 C 245.507 314.711,245.485 314.723,243.403 314.723 C 241.415 314.723,241.300 314.775,241.300 315.679 C 241.300 316.472,241.117 316.635,240.225 316.635 C 239.528 316.635,238.761 317.040,238.050 317.782 C 237.445 318.413,236.660 318.929,236.305 318.929 C 235.886 318.929,235.568 319.364,235.398 320.172 C 234.593 323.994,234.024 378.490,234.795 378.014 C 235.018 377.876,235.071 378.045,234.925 378.426 C 234.717 378.969,234.873 379.044,235.902 378.892 C 236.576 378.794,237.218 378.859,237.328 379.037 C 237.439 379.216,237.716 379.247,237.944 379.106 C 238.216 378.938,238.248 379.034,238.035 379.386 C 237.760 379.844,237.808 379.846,238.359 379.399 C 239.160 378.749,239.206 378.150,238.432 378.447 C 238.107 378.571,237.859 378.456,237.859 378.180 C 237.859 377.912,237.966 377.801,238.098 377.933 C 238.230 378.064,238.940 377.921,239.675 377.614 C 240.410 377.307,241.506 377.055,242.112 377.055 C 243.087 377.055,243.219 376.914,243.270 375.813 C 243.323 374.656,243.338 374.643,243.486 375.621 C 243.794 377.657,245.308 377.046,248.957 373.414 L 252.231 370.155 253.338 371.311 C 254.891 372.932,256.597 372.936,256.597 371.319 C 256.597 370.351,256.448 370.172,255.641 370.172 C 254.737 370.172,254.685 370.057,254.685 368.069 L 254.685 365.966 258.604 365.961 C 264.369 365.955,265.392 365.726,265.392 364.444 C 265.392 363.745,265.111 363.270,264.532 362.991 C 263.720 362.599,263.742 362.574,264.914 362.550 C 265.598 362.536,266.157 362.355,266.157 362.149 C 266.157 361.920,269.242 361.731,274.092 361.663 C 279.139 361.592,276.982 361.520,268.164 361.464 L 254.302 361.377 254.296 338.337 C 254.293 323.664,254.159 315.505,253.928 315.870 C 253.683 316.257,253.525 315.079,253.441 312.237 C 253.373 309.924,253.281 308.470,253.236 309.007 M262.683 362.663 C 261.840 363.401,260.916 363.552,260.247 363.063 C 259.571 362.569,259.649 362.524,261.176 362.524 C 262.093 362.524,262.771 362.587,262.683 362.663 M164.342 365.010 C 164.242 365.535,164.308 365.966,164.489 365.966 C 164.670 365.966,164.818 365.535,164.818 365.010 C 164.818 364.484,164.752 364.054,164.672 364.054 C 164.591 364.054,164.443 364.484,164.342 365.010 M164.818 371.511 C 164.818 372.131,164.037 372.131,163.581 371.511 C 163.427 371.300,163.298 371.494,163.295 371.942 C 163.287 372.926,162.657 373.496,161.377 373.673 C 160.659 373.772,160.390 374.067,160.300 374.857 C 160.205 375.678,159.978 375.908,159.262 375.908 C 158.557 375.908,158.175 376.282,157.599 377.533 L 156.852 379.159 156.820 377.916 C 156.773 376.091,154.493 375.997,154.493 377.820 C 154.493 378.967,154.492 378.967,152.212 378.967 C 149.758 378.967,147.171 380.540,147.272 381.971 C 147.310 382.513,147.341 382.508,147.491 381.931 C 147.587 381.563,147.811 381.262,147.989 381.262 C 148.167 381.262,148.583 381.158,148.915 381.031 C 149.317 380.876,149.637 381.098,149.878 381.700 C 150.143 382.363,150.245 382.424,150.263 381.931 C 150.276 381.563,150.459 381.262,150.669 381.262 C 150.880 381.262,151.064 381.563,151.079 381.931 C 151.101 382.503,151.153 382.490,151.434 381.836 L 151.763 381.071 151.814 381.836 C 151.859 382.507,151.917 382.484,152.289 381.644 C 152.713 380.691,152.714 380.690,152.865 381.549 C 153.090 382.823,158.700 382.890,158.700 381.618 C 158.700 380.884,158.864 380.842,160.994 381.032 C 162.356 381.153,163.289 381.086,163.289 380.867 C 163.289 380.663,163.074 380.494,162.811 380.491 C 162.489 380.487,162.467 380.393,162.743 380.204 C 162.969 380.050,163.256 379.644,163.382 379.302 C 163.540 378.872,163.946 378.726,164.693 378.829 C 165.607 378.955,165.656 378.922,165.010 378.617 C 164.378 378.319,164.357 378.252,164.892 378.230 C 165.364 378.210,165.484 377.970,165.337 377.342 C 165.225 376.869,165.144 375.234,165.155 373.709 C 165.167 372.185,165.096 370.937,164.997 370.937 C 164.899 370.937,164.818 371.195,164.818 371.511 M158.789 373.614 C 158.789 374.350,158.867 374.651,158.963 374.283 C 159.060 373.915,159.060 373.313,158.963 372.945 C 158.867 372.576,158.789 372.878,158.789 373.614 M236.781 380.212 C 236.928 381.252,238.623 381.693,238.623 380.692 C 238.623 380.350,238.451 380.176,238.241 380.306 C 238.031 380.436,237.859 380.378,237.859 380.178 C 237.859 379.978,237.589 379.711,237.259 379.584 C 236.806 379.410,236.689 379.565,236.781 380.212 M143.403 381.836 C 143.403 382.236,143.807 382.409,144.742 382.409 C 145.677 382.409,146.080 382.236,146.080 381.836 C 146.080 381.435,145.677 381.262,144.742 381.262 C 143.807 381.262,143.403 381.435,143.403 381.836 M148.757 381.836 C 148.757 382.151,148.929 382.409,149.140 382.409 C 149.350 382.409,149.522 382.151,149.522 381.836 C 149.522 381.520,149.350 381.262,149.140 381.262 C 148.929 381.262,148.757 381.520,148.757 381.836 " stroke="none" fill="#fc91e7" fill-rule="evenodd"></path></g></svg>